<svg height="512pt" viewBox="0 -11 512 512" width="512pt" xmlns="http://www.w3.org/2000/svg"><path d="m493.027344 385.324219 18.902344-18.898438v-347.527343l-18.902344-18.898438h-474.128906l-18.898438 18.898438v347.527343l18.898438 18.898438zm-478.03125-360.210938 10.117187-10.117187h461.703125l10.113282 10.117187v335.101563l-10.113282 10.113281h-461.703125l-10.117187-10.113281zm0 0"/><path d="m476.933594 34.996094h-169.851563v149.542968h169.851563zm-14.996094 134.546875h-139.859375v-119.550781h139.859375zm0 0"/><path d="m290.835938 34.996094h-255.839844v149.542968h255.839844zm-14.996094 134.546875h-225.847656v-119.550781h225.847656zm0 0"/><path d="m204.847656 200.785156h-169.851562v149.546875h169.851562zm-14.996094 134.546875h-139.859374v-119.550781h139.859374zm0 0"/><path d="m221.09375 350.332031h255.839844v-149.546875h-255.839844zm14.996094-134.550781h225.847656v119.550781h-225.847656zm0 0"/><path d="m0 400.710938v88.574218l512-14.128906v-60.3125zm497.003906 59.855468-482.007812 13.300782v-21.371094h482.007812zm-482.007812-23.066406v-21.371094l482.007812 13.304688v8.066406zm0 0"/><path d="m248.667969 228.78125h15v14.996094h-15zm0 0"/><path d="m276.378906 228.78125h14.996094v14.996094h-14.996094zm0 0"/><path d="m304.089844 228.78125h14.996094v14.996094h-14.996094zm0 0"/><path d="m397.789062 308.054688h15v15h-15zm0 0"/><path d="m425.503906 308.054688h14.996094v15h-14.996094zm0 0"/><path d="m349.011719 238.773438c-20.28125 0-36.78125 16.503906-36.78125 36.785156s16.5 36.78125 36.78125 36.78125c20.285156 0 36.785156-16.5 36.785156-36.78125s-16.5-36.785156-36.785156-36.785156zm0 58.570312c-12.011719 0-21.78125-9.773438-21.78125-21.785156 0-12.015625 9.769531-21.785156 21.78125-21.785156 12.015625 0 21.789062 9.769531 21.789062 21.785156-.003906 12.011718-9.773437 21.785156-21.789062 21.785156zm0 0"/><path d="m145.5625 258.535156v-26.757812h-26.757812c-33.527344 0-60.800782 27.277344-60.800782 60.804687v26.753907h26.753906c33.527344 0 60.804688-27.277344 60.804688-60.800782zm-26.757812-11.757812h11.757812v11.757812c0 25.257813-20.546875 45.804688-45.804688 45.804688h-1.152343l37.453125-37.453125-10.605469-10.605469-37.453125 37.453125v-1.152344c0-25.257812 20.546875-45.804687 45.804688-45.804687zm0 0"/><path d="m113.476562 160.503906c27.976563 0 50.738282-22.761718 50.738282-50.734375 0-27.976562-22.761719-50.738281-50.738282-50.738281-27.972656 0-50.734374 22.761719-50.734374 50.738281 0 27.972657 22.761718 50.734375 50.734374 50.734375zm0-86.476562c19.707032 0 35.742188 16.035156 35.742188 35.742187 0 19.703125-16.035156 35.734375-35.742188 35.734375-19.703124 0-35.738281-16.027344-35.738281-35.734375s16.035157-35.742187 35.738281-35.742187zm0 0"/><path d="m445.117188 158.832031 11.320312-11.320312v-33.921875l-3.820312-3.820313 3.820312-3.820312v-33.925781l-11.320312-11.320313h-106.21875l-11.320313 11.320313v33.925781l3.820313 3.820312-3.820313 3.820313v33.921875l11.320313 11.320312zm-3.679688-17.53125-2.535156 2.535157h-93.792969l-2.535156-2.535157v-21.5l2.535156-2.53125h93.792969l2.535156 2.53125zm-98.863281-63.066406 2.535156-2.535156h93.792969l2.535156 2.535156v21.5l-2.535156 2.535156h-93.792969l-2.535156-2.535156zm0 0"/><path d="m212.355469 74.027344c19.703125 0 35.738281 16.03125 35.738281 35.738281s-16.035156 35.738281-35.738281 35.738281c-.875 0-1.777344-.03125-2.683594-.101562l-1.117187 14.957031c1.273437.09375 2.554687.144531 3.796874.144531 27.976563 0 50.738282-22.761718 50.738282-50.738281 0-27.972656-22.761719-50.734375-50.738282-50.734375-1.230468 0-2.503906.046875-3.792968.144531l1.105468 14.957031c.921876-.070312 1.828126-.105468 2.691407-.105468zm0 0"/><path d="m162.914062 74.027344c19.707032 0 35.742188 16.03125 35.742188 35.738281s-16.035156 35.738281-35.742188 35.738281c-.871093 0-1.773437-.03125-2.679687-.101562l-1.121094 14.957031c1.277344.09375 2.554688.144531 3.800781.144531 27.976563 0 50.738282-22.761718 50.738282-50.738281 0-27.972656-22.761719-50.734375-50.738282-50.734375-1.230468 0-2.503906.046875-3.792968.144531l1.105468 14.957031c.921876-.070312 1.828126-.105468 2.6875-.105468zm0 0"/><path d="m135.335938 302.050781 4.683593 14.25c25.015625-8.21875 41.824219-31.429687 41.824219-57.765625v-26.757812h-23.785156v15h8.785156v11.757812c0 19.839844-12.660156 37.328125-31.507812 43.515625zm0 0"/><path d="m431.882812 96.484375h-29.996093v-15h29.996093zm-39.996093 0h-14.996094v-15h14.996094zm-24.996094 0h-14.996094v-15h14.996094zm0 0"/></svg>