<svg xmlns="http://www.w3.org/2000/svg" width="39.467" height="22.365" viewBox="0 0 39.467 22.365">
  <path id="Path_92" data-name="Path 92" d="M27.13,5.262,23.6,1.734A5.879,5.879,0,0,0,19.415,0h-8.27A3.311,3.311,0,0,0,9.675.347L8.2,1.084a1.95,1.95,0,0,1-.954.207l-.668-.023V0H0V14.471H6.578V12.5H7.7l.4.263a7.252,7.252,0,0,0,3.746,1.206v8.4H39.467V5.262ZM5.262,13.155H1.315V1.315H5.262Zm3.56-1.489-.732-.484H6.578v-8.6l.62.022a3.3,3.3,0,0,0,1.591-.345l1.473-.737a1.977,1.977,0,0,1,.884-.208h8.27a4.573,4.573,0,0,1,3.256,1.348l2.6,2.6H19.841l-1.6-1.6-.93.93,4.647,4.647A1.319,1.319,0,1,1,20.1,11.112L16.219,7.231l-.461.395a3.486,3.486,0,0,1-4.434.066l-.381-.309L10.115,8.4l.385.313a4.8,4.8,0,0,0,1.34.755V12.65a5.932,5.932,0,0,1-3.018-.984Zm9.357-.616.992.993a2.65,2.65,0,0,0,3.716,0,3.33,3.33,0,1,0,.374-.477,2.587,2.587,0,0,0,.216-2.361h8.809a3.958,3.958,0,0,0,3.234,3.234v2.74a3.958,3.958,0,0,0-3.234,3.234H19.021a3.958,3.958,0,0,0-3.234-3.234v-2.74a3.927,3.927,0,0,0,2.393-1.393Zm5.5,2.763a1.973,1.973,0,1,1,1.973,1.973A1.973,1.973,0,0,1,23.68,13.813Zm14.471,7.236h-25V9.747a4.783,4.783,0,0,0,2.96-.756l1.122,1.122a2.625,2.625,0,0,1-2.109,1.069h-.658v5.262h.658a2.631,2.631,0,0,1,2.631,2.631v.658H33.547v-.658a2.631,2.631,0,0,1,2.631-2.631h.658V11.182h-.658a2.631,2.631,0,0,1-2.631-2.631V7.893H22.473L21.157,6.578H38.152Zm0,0" transform="translate(0 0)" fill="#2e2e2e"/>
</svg>
