<svg xmlns="http://www.w3.org/2000/svg" width="33.992" height="13.156" viewBox="0 0 33.992 13.156">
  <path id="Path_91" data-name="Path 91" d="M94,322.129l-1.675-1a3.3,3.3,0,0,0-1.69-.467H88.113a5.951,5.951,0,0,0-1.529.2l-7.6,2.039a2.649,2.649,0,0,0-1.789,1.659l-6.682-3.615a2.618,2.618,0,0,0-1.788-.3,2.468,2.468,0,0,0-.665.218,2.586,2.586,0,0,0-1.13,1.052,2.636,2.636,0,0,0-.348,1.309,2.607,2.607,0,0,0,1.3,2.275l11.976,7.165a3.289,3.289,0,0,0,1.732.493h9.268a3.279,3.279,0,0,0,1.209-.23l1.93-.762v.992h6.578V320H94ZM91.586,331.7a1.978,1.978,0,0,1-.724.138h-9.27a1.979,1.979,0,0,1-1.048-.3l-11.992-7.174a1.309,1.309,0,0,1-.654-1.142,1.336,1.336,0,0,1,.176-.658,1.293,1.293,0,0,1,.565-.522,1.239,1.239,0,0,1,.329-.107,1.382,1.382,0,0,1,.252-.023,1.29,1.29,0,0,1,.645.171L77.111,326c.008.04.008.08.019.12a2.638,2.638,0,0,0,2.543,1.947,6.464,6.464,0,0,0,1.084-.193l6.834-1.829-.339-1.271-6.812,1.821c-.3.069-.687.148-.767.155a1.316,1.316,0,0,1-1.272-.969,1.2,1.2,0,0,1-.038-.243s-.005-.159,0-.215a1.33,1.33,0,0,1,.968-1.16l7.593-2.032a4.6,4.6,0,0,1,1.188-.156h2.521a1.973,1.973,0,0,1,1.014.28L94,323.662v7.086Zm3.729-10.386h3.947v10.525H95.315Zm0,0" transform="translate(-66.585 -320)" fill="#2e2e2e"/>
</svg>
